<svg width="598" height="346" viewBox="0 0 598 346" fill="none" xmlns="http://www.w3.org/2000/svg">
<path d="M244.454 152.841V146.06L261.457 119.273H267.304V128.659H263.843L253.125 145.622V145.94H277.287V152.841H244.454ZM264.002 160V150.773L264.162 147.77V119.273H272.235V160H264.002ZM298.993 160.895C295.572 160.882 292.629 160.04 290.163 158.369C287.71 156.699 285.821 154.279 284.495 151.111C283.183 147.942 282.533 144.131 282.547 139.676C282.547 135.235 283.203 131.45 284.515 128.321C285.841 125.192 287.73 122.812 290.183 121.182C292.649 119.538 295.585 118.716 298.993 118.716C302.4 118.716 305.33 119.538 307.782 121.182C310.248 122.826 312.144 125.212 313.47 128.341C314.796 131.456 315.452 135.235 315.439 139.676C315.439 144.144 314.776 147.962 313.45 151.131C312.137 154.299 310.255 156.719 307.802 158.389C305.35 160.06 302.413 160.895 298.993 160.895ZM298.993 153.756C301.326 153.756 303.189 152.582 304.581 150.236C305.973 147.889 306.662 144.369 306.649 139.676C306.649 136.587 306.331 134.015 305.694 131.96C305.071 129.905 304.183 128.361 303.029 127.327C301.889 126.293 300.544 125.776 298.993 125.776C296.672 125.776 294.816 126.936 293.424 129.256C292.032 131.576 291.33 135.049 291.316 139.676C291.316 142.805 291.628 145.417 292.251 147.511C292.887 149.593 293.782 151.157 294.936 152.205C296.089 153.239 297.441 153.756 298.993 153.756ZM320.962 152.841V146.06L337.965 119.273H343.811V128.659H340.351L329.632 145.622V145.94H353.794V152.841H320.962ZM340.51 160V150.773L340.669 147.77V119.273H348.743V160H340.51ZM201.418 187.273V228H193.98L176.261 202.366H175.963V228H167.352V187.273H174.909L192.489 212.886H192.847V187.273H201.418ZM222.174 228.597C219.085 228.597 216.414 227.94 214.16 226.628C211.919 225.302 210.189 223.459 208.969 221.099C207.75 218.726 207.14 215.975 207.14 212.847C207.14 209.691 207.75 206.934 208.969 204.574C210.189 202.201 211.919 200.358 214.16 199.045C216.414 197.72 219.085 197.057 222.174 197.057C225.263 197.057 227.928 197.72 230.168 199.045C232.422 200.358 234.159 202.201 235.379 204.574C236.598 206.934 237.208 209.691 237.208 212.847C237.208 215.975 236.598 218.726 235.379 221.099C234.159 223.459 232.422 225.302 230.168 226.628C227.928 227.94 225.263 228.597 222.174 228.597ZM222.214 222.034C223.619 222.034 224.792 221.636 225.734 220.841C226.675 220.032 227.384 218.932 227.862 217.54C228.352 216.148 228.597 214.563 228.597 212.787C228.597 211.01 228.352 209.426 227.862 208.034C227.384 206.642 226.675 205.542 225.734 204.733C224.792 203.924 223.619 203.52 222.214 203.52C220.795 203.52 219.602 203.924 218.634 204.733C217.68 205.542 216.957 206.642 216.467 208.034C215.989 209.426 215.751 211.01 215.751 212.787C215.751 214.563 215.989 216.148 216.467 217.54C216.957 218.932 217.68 220.032 218.634 220.841C219.602 221.636 220.795 222.034 222.214 222.034ZM258.964 197.455V203.818H240.569V197.455H258.964ZM244.745 190.136H253.217V218.614C253.217 219.396 253.336 220.006 253.575 220.443C253.813 220.867 254.145 221.166 254.569 221.338C255.006 221.51 255.51 221.597 256.08 221.597C256.478 221.597 256.876 221.563 257.273 221.497C257.671 221.418 257.976 221.358 258.188 221.318L259.521 227.622C259.096 227.755 258.5 227.907 257.731 228.08C256.962 228.265 256.027 228.378 254.927 228.418C252.885 228.497 251.095 228.225 249.558 227.602C248.033 226.979 246.846 226.011 245.998 224.699C245.149 223.386 244.732 221.729 244.745 219.727V190.136ZM293.869 197.455V203.818H275.017V197.455H293.869ZM279.332 228V195.247C279.332 193.033 279.763 191.197 280.625 189.739C281.5 188.28 282.693 187.187 284.205 186.457C285.716 185.728 287.433 185.364 289.355 185.364C290.654 185.364 291.841 185.463 292.915 185.662C294.002 185.861 294.811 186.04 295.341 186.199L293.83 192.562C293.498 192.456 293.087 192.357 292.597 192.264C292.119 192.171 291.629 192.125 291.125 192.125C289.879 192.125 289.01 192.417 288.52 193C288.029 193.57 287.784 194.372 287.784 195.406V228H279.332ZM311.752 228.597C308.663 228.597 305.992 227.94 303.738 226.628C301.497 225.302 299.767 223.459 298.548 221.099C297.328 218.726 296.718 215.975 296.718 212.847C296.718 209.691 297.328 206.934 298.548 204.574C299.767 202.201 301.497 200.358 303.738 199.045C305.992 197.72 308.663 197.057 311.752 197.057C314.841 197.057 317.506 197.72 319.746 199.045C322 200.358 323.737 202.201 324.957 204.574C326.176 206.934 326.786 209.691 326.786 212.847C326.786 215.975 326.176 218.726 324.957 221.099C323.737 223.459 322 225.302 319.746 226.628C317.506 227.94 314.841 228.597 311.752 228.597ZM311.792 222.034C313.197 222.034 314.371 221.636 315.312 220.841C316.253 220.032 316.962 218.932 317.44 217.54C317.93 216.148 318.175 214.563 318.175 212.787C318.175 211.01 317.93 209.426 317.44 208.034C316.962 206.642 316.253 205.542 315.312 204.733C314.371 203.924 313.197 203.52 311.792 203.52C310.373 203.52 309.18 203.924 308.212 204.733C307.258 205.542 306.535 206.642 306.045 208.034C305.567 209.426 305.329 211.01 305.329 212.787C305.329 214.563 305.567 216.148 306.045 217.54C306.535 218.932 307.258 220.032 308.212 220.841C309.18 221.636 310.373 222.034 311.792 222.034ZM351.883 214.994V197.455H360.354V228H352.221V222.452H351.903C351.213 224.241 350.067 225.68 348.462 226.767C346.871 227.854 344.929 228.398 342.636 228.398C340.594 228.398 338.798 227.934 337.246 227.006C335.695 226.078 334.482 224.759 333.607 223.048C332.746 221.338 332.308 219.29 332.295 216.903V197.455H340.766V215.392C340.78 217.195 341.263 218.62 342.218 219.668C343.173 220.715 344.452 221.239 346.056 221.239C347.077 221.239 348.031 221.007 348.92 220.543C349.808 220.065 350.524 219.363 351.067 218.435C351.624 217.507 351.896 216.36 351.883 214.994ZM375.602 210.341V228H367.131V197.455H375.205V202.844H375.562C376.239 201.067 377.372 199.662 378.963 198.628C380.554 197.58 382.483 197.057 384.75 197.057C386.871 197.057 388.721 197.521 390.298 198.449C391.876 199.377 393.102 200.703 393.977 202.426C394.852 204.136 395.29 206.178 395.29 208.551V228H386.818V210.062C386.831 208.193 386.354 206.735 385.386 205.688C384.419 204.627 383.086 204.097 381.389 204.097C380.249 204.097 379.241 204.342 378.366 204.832C377.505 205.323 376.829 206.039 376.338 206.98C375.861 207.908 375.616 209.028 375.602 210.341ZM413.222 228.497C410.902 228.497 408.801 227.901 406.918 226.707C405.049 225.501 403.564 223.731 402.464 221.398C401.377 219.051 400.833 216.174 400.833 212.767C400.833 209.267 401.397 206.357 402.523 204.037C403.65 201.704 405.148 199.96 407.018 198.807C408.9 197.64 410.962 197.057 413.202 197.057C414.913 197.057 416.338 197.348 417.478 197.932C418.631 198.502 419.559 199.218 420.262 200.08C420.978 200.928 421.522 201.763 421.893 202.585H422.151V187.273H430.603V228H422.251V223.108H421.893C421.495 223.956 420.932 224.798 420.202 225.634C419.487 226.455 418.552 227.138 417.398 227.682C416.258 228.225 414.866 228.497 413.222 228.497ZM415.907 221.756C417.272 221.756 418.426 221.384 419.367 220.642C420.322 219.886 421.051 218.832 421.555 217.48C422.072 216.128 422.33 214.544 422.33 212.727C422.33 210.911 422.078 209.333 421.575 207.994C421.071 206.655 420.342 205.621 419.387 204.892C418.433 204.163 417.272 203.798 415.907 203.798C414.515 203.798 413.342 204.176 412.387 204.932C411.433 205.687 410.71 206.735 410.219 208.074C409.729 209.413 409.484 210.964 409.484 212.727C409.484 214.504 409.729 216.075 410.219 217.44C410.723 218.793 411.446 219.853 412.387 220.622C413.342 221.378 414.515 221.756 415.907 221.756Z" fill="#8A8A8A"/>
</svg>
